<?xml version="1.0" encoding="utf-8"?>
<!-- Generator: Adobe Illustrator 24.1.0, SVG Export Plug-In . SVG Version: 6.00 Build 0)  -->
<svg version="1.1" id="Layer_1" xmlns="http://www.w3.org/2000/svg" xmlns:xlink="http://www.w3.org/1999/xlink" x="0px" y="0px"
	 viewBox="0 0 40 40" enable-background="new 0 0 40 40" xml:space="preserve">
<g>
	<path d="M31.366,30.574c-0.713-0.509-1.616-0.967-2.711-1.362c-0.42-0.153-0.853-0.28-1.311-0.407
		c-0.369-0.102-0.764,0.115-0.865,0.496c-0.102,0.382,0.115,0.764,0.496,0.878c0.42,0.102,0.827,0.229,1.209,0.369
		c0.955,0.344,1.756,0.738,2.354,1.171c0.547,0.395,1.209,1.018,1.209,1.731c0,1.96-4.824,4.136-11.748,4.136
		S8.253,35.411,8.253,33.451c0-0.713,0.662-1.336,1.209-1.731c0.598-0.433,1.4-0.827,2.355-1.171
		c0.382-0.14,0.789-0.267,1.209-0.369c0.382-0.115,0.598-0.496,0.496-0.878c-0.102-0.382-0.496-0.598-0.865-0.496
		c-0.458,0.127-0.891,0.255-1.311,0.407c-1.095,0.395-1.998,0.853-2.711,1.362c-1.489,1.056-1.795,2.151-1.795,2.876
		C6.84,36.62,12.491,39,20,39s13.16-2.38,13.16-5.549C33.16,32.725,32.855,31.631,31.366,30.574z"/>
	<path d="M21.559,1.094C21.029,1.031,20.515,1,20,1s-1.029,0.031-1.559,0.094C11.486,1.936,6.605,8.688,7.775,15.611
		c0.452,2.713,1.996,5.006,6.191,10.962c1.169,1.669,2.542,3.618,4.163,5.957c0.031,0.047,0.047,0.094,0.078,0.125
		c0.437,0.624,1.107,0.951,1.793,0.951c0.686,0,1.357-0.328,1.793-0.951c0.031-0.031,0.047-0.078,0.078-0.125
		c1.622-2.339,2.994-4.288,4.163-5.957c4.195-5.957,5.738-8.249,6.191-10.962C33.395,8.688,28.514,1.936,21.559,1.094z
		 M22.53,17.703c-0.58,0.37-1.15,1.12-1.15,1.62l-0.02,0.79c-0.02,1.77,0.66,4.7,0.59,7.05c0,0.18-0.13,0.78-0.66,1.27
		c-0.5,0.47-0.93,0.57-1.28,0.57H20h-0.01c-0.35,0-0.78-0.1-1.28-0.57c-0.53-0.49-0.66-1.09-0.66-1.27
		c-0.07-2.35,0.61-5.28,0.59-7.05l-0.02-0.79c0-0.5-0.57-1.25-1.15-1.62c-0.88-0.56-2.17-1.64-2.04-3.13l0.71-8.22
		c0.05-0.47,0.3-0.75,0.75-0.75s0.74,0.29,0.74,0.75v6.89c0,0.48,0.31,0.79,0.79,0.79h0.03c0.48,0,0.79-0.31,0.79-0.79v-6.89
		c0-0.46,0.3-0.75,0.75-0.75H20h0.01c0.45,0,0.75,0.29,0.75,0.75v6.89c0,0.48,0.31,0.79,0.79,0.79h0.03c0.48,0,0.79-0.31,0.79-0.79
		v-6.89c0-0.46,0.29-0.75,0.74-0.75s0.7,0.28,0.75,0.75l0.71,8.22C24.7,16.063,23.41,17.143,22.53,17.703z"/>
</g>
</svg>
